<svg width="35" height="28" viewBox="0 0 35 28" fill="none" xmlns="http://www.w3.org/2000/svg">
<path d="M-0.00195312 2.21534V8.53751C-0.00195312 10.463 2.34429 11.49 3.77811 10.1421L10.6213 3.81995C12.1203 2.43999 11.1427 0.000976562 9.08974 0.000976562H2.24653C1.00824 0.000976562 -0.00195312 0.995836 -0.00195312 2.21534Z" fill="#FFFDFA"/>
<path d="M32.3907 0.00111305H25.5475C23.5271 0.00111305 22.5169 2.44012 24.0159 3.82009L30.8591 10.1423C32.293 11.458 34.6392 10.4632 34.6392 8.53764V2.21548C34.6392 0.995972 33.629 0.00111305 32.3907 0.00111305Z" fill="#FFFDFA"/>
<path d="M18.8658 15.4355L30.8577 26.5394C32.2915 27.8552 34.6377 26.8603 34.6377 24.9348V18.5485C34.6377 17.9387 34.377 17.361 33.9208 16.9438L18.8658 2.98373C17.9859 2.18143 16.6499 2.18143 15.77 2.98373L0.714955 16.9438C0.258741 17.361 -0.00195312 17.9387 -0.00195312 18.5485V24.9348C-0.00195312 26.8603 2.34429 27.8873 3.77811 26.5394L15.77 15.4355C16.6499 14.6332 17.9859 14.6332 18.8658 15.4355Z" fill="#FFFDFA"/>
</svg>
