<svg xmlns="http://www.w3.org/2000/svg" version="1.1" xmlns:xlink="http://www.w3.org/1999/xlink" width="1000" height="1000"><g clip-path="url(#SvgjsClipPath1107)"><rect width="1000" height="1000" fill="#00065c"></rect><g transform="matrix(15.625,0,0,15.625,0,0)"><svg xmlns="http://www.w3.org/2000/svg" version="1.1" xmlns:xlink="http://www.w3.org/1999/xlink" width="64" height="64"><svg width="64" height="64" viewBox="0 0 64 64" fill="none" xmlns="http://www.w3.org/2000/svg">
<rect width="64" height="64" fill="#00065C"></rect>
<g clip-path="url(#clip0_788_1279)">
<path d="M14.498 20.2144V26.5365C14.498 28.462 16.8443 29.489 18.2781 28.1411L25.1213 21.819C26.6203 20.439 25.6427 18 23.5897 18H16.7465C15.5082 18 14.498 18.9949 14.498 20.2144Z" fill="#FFFDFA"></path>
<path d="M46.8908 18.002H40.0476C38.0272 18.002 37.017 20.441 38.516 21.8209L45.3592 28.1431C46.7931 29.4588 49.1393 28.464 49.1393 26.5385V20.2163C49.1393 18.9968 48.1291 18.002 46.8908 18.002Z" fill="#FFFDFA"></path>
<path d="M33.3658 33.4363L45.3577 44.5402C46.7915 45.856 49.1377 44.8611 49.1377 42.9356V36.5493C49.1377 35.9395 48.877 35.3618 48.4208 34.9446L33.3658 20.9845C32.4859 20.1822 31.1499 20.1822 30.27 20.9845L15.215 34.9446C14.7587 35.3618 14.498 35.9395 14.498 36.5493V42.9356C14.498 44.8611 16.8443 45.8881 18.2781 44.5402L30.27 33.4363C31.1499 32.634 32.4859 32.634 33.3658 33.4363Z" fill="#FFFDFA"></path>
</g>
<defs>
<clipPath id="clip0_788_1279">
<rect width="35" height="28" fill="white" transform="translate(14.5 18)"></rect>
</clipPath>
<clipPath id="SvgjsClipPath1107"><rect width="1000" height="1000" x="0" y="0" rx="500" ry="500"></rect></clipPath></defs>
</svg></svg></g></g></svg>